<svg width="128" height="128" viewBox="0 0 128 128" fill="none" xmlns="http://www.w3.org/2000/svg">
  <defs>
    <linearGradient id="bg" x1="12" y1="8" x2="116" y2="120" gradientUnits="userSpaceOnUse">
      <stop stop-color="#13143B"/>
      <stop offset="1" stop-color="#27135B"/>
    </linearGradient>
    <linearGradient id="ring" x1="10" y1="64" x2="118" y2="64" gradientUnits="userSpaceOnUse">
      <stop stop-color="#7C52FF"/>
      <stop offset="1" stop-color="#D67CFF"/>
    </linearGradient>
    <linearGradient id="glass" x1="64" y1="20" x2="64" y2="108" gradientUnits="userSpaceOnUse">
      <stop stop-color="#F4D1FF"/>
      <stop offset="1" stop-color="#A564FF"/>
    </linearGradient>
  </defs>
  <rect x="8" y="8" width="112" height="112" rx="24" fill="url(#bg)"/>
  <ellipse cx="64" cy="64" rx="50" ry="20" stroke="url(#ring)" stroke-width="5" opacity="0.9"/>
  <rect x="34" y="18" width="60" height="10" rx="5" fill="#AA78FF"/>
  <rect x="34" y="100" width="60" height="10" rx="5" fill="#AA78FF"/>
  <path d="M42 28H86C86 45 74 47 66 56C74 65 86 67 86 100H42C42 67 54 65 62 56C54 47 42 45 42 28Z" stroke="url(#glass)" stroke-width="5" fill="none"/>
  <path d="M48 39H80C78 48 72 50 64 56C56 50 50 48 48 39Z" fill="#D68FFF" opacity="0.75"/>
  <path d="M48 90H80C78 81 72 79 64 73C56 79 50 81 48 90Z" fill="#B46BFF" opacity="0.85"/>
  <circle cx="49" cy="34" r="1.7" fill="#EEDCFF"/>
  <circle cx="78" cy="74" r="1.6" fill="#EEDCFF"/>
  <circle cx="58" cy="95" r="1.5" fill="#EEDCFF"/>
</svg>
